{
  "accessors": [
    {
      "bufferView": 2,
      "componentType": 5126,
      "count": 1231,
      "max": [
        0.08587206900119781,
        1.6379107236862183,
        -0.03707779943943024
      ],
      "min": [
        -0.08669203519821167,
        1.6181021928787231,
        -0.0870811864733696
      ],
      "type": "VEC3"
    },
    {
      "bufferView": 2,
      "byteOffset": 14772,
      "componentType": 5126,
      "count": 1231,
      "max": [
        0.8449693322181702,
        0.8918063640594482,
        0.9524146318435669
      ],
      "min": [
        -0.8750224113464355,
        -0.891560435295105,
        -0.8912556767463684
      ],
      "type": "VEC3"
    },
    {
      "bufferView": 1,
      "componentType": 5126,
      "count": 1231,
      "max": [
        93.650390625,
        8.5
      ],
      "min": [
        -93.650390625,
        -8.5
      ],
      "type": "VEC2"
    },
    {
      "bufferView": 0,
      "componentType": 5125,
      "count": 6036,
      "type": "SCALAR"
    },
    {
      "bufferView": 2,
      "byteOffset": 29544,
      "componentType": 5126,
      "count": 1682,
      "max": [
        0.08620669692754745,
        1.636293649673462,
        0.04639703407883644
      ],
      "min": [
        -0.08711935579776764,
        1.5608046054840088,
        -0.042142901569604874
      ],
      "type": "VEC3"
    },
    {
      "bufferView": 2,
      "byteOffset": 49728,
      "componentType": 5126,
      "count": 1682,
      "max": [
        0.8698490858078003,
        0.9435272812843323,
        0.9629920721054077
      ],
      "min": [
        -0.8784180283546448,
        -0.8844728469848633,
        -0.962999701499939
      ],
      "type": "VEC3"
    },
    {
      "bufferView": 1,
      "byteOffset": 9848,
      "componentType": 5126,
      "count": 1682,
      "max": [
        136.16224670410156,
        8.5
      ],
      "min": [
        -136.16224670410156,
        -8.5
      ],
      "type": "VEC2"
    },
    {
      "bufferView": 0,
      "byteOffset": 24144,
      "componentType": 5125,
      "count": 8322,
      "type": "SCALAR"
    },
    {
      "bufferView": 2,
      "byteOffset": 69912,
      "componentType": 5126,
      "count": 22320,
      "max": [
        0.2065085917711258,
        1.6276650428771973,
        0.1597357988357544
      ],
      "min": [
        -0.20776261389255524,
        0.9531669020652771,
        -0.04202919453382492
      ],
      "type": "VEC3"
    },
    {
      "bufferView": 2,
      "byteOffset": 337752,
      "componentType": 5126,
      "count": 22320,
      "max": [
        0.999991774559021,
        0.9409497976303101,
        0.9998284578323364
      ],
      "min": [
        -0.9999173283576965,
        -0.7204048037528992,
        -0.38050955533981323
      ],
      "type": "VEC3"
    },
    {
      "bufferView": 1,
      "byteOffset": 23304,
      "componentType": 5126,
      "count": 22320,
      "max": [
        255.8099822998047,
        297.21990966796875
      ],
      "min": [
        -255.81861877441406,
        -406.00201416015625
      ],
      "type": "VEC2"
    },
    {
      "bufferView": 0,
      "byteOffset": 57432,
      "componentType": 5125,
      "count": 132402,
      "type": "SCALAR"
    },
    {
      "bufferView": 2,
      "byteOffset": 605592,
      "componentType": 5126,
      "count": 22320,
      "max": [
        0.20620815455913544,
        1.6272343397140503,
        0.15923799574375153
      ],
      "min": [
        -0.2074778825044632,
        0.9531122446060181,
        -0.042154423892498016
      ],
      "type": "VEC3"
    },
    {
      "bufferView": 2,
      "byteOffset": 873432,
      "componentType": 5126,
      "count": 22320,
      "max": [
        0.9999173283576965,
        0.7202609181404114,
        0.38050419092178345
      ],
      "min": [
        -0.999991774559021,
        -0.9409393072128296,
        -0.9998282790184021
      ],
      "type": "VEC3"
    },
    {
      "bufferView": 1,
      "byteOffset": 201864,
      "componentType": 5126,
      "count": 22320,
      "max": [
        255.8099822998047,
        297.21990966796875
      ],
      "min": [
        -255.81861877441406,
        -406.00201416015625
      ],
      "type": "VEC2"
    },
    {
      "bufferView": 0,
      "byteOffset": 587040,
      "componentType": 5125,
      "count": 132402,
      "type": "SCALAR"
    },
    {
      "bufferView": 2,
      "byteOffset": 1141272,
      "componentType": 5126,
      "count": 3612,
      "max": [
        0.2065085917711258,
        1.6276650428771973,
        0.1597357988357544
      ],
      "min": [
        -0.20776261389255524,
        0.9531122446060181,
        -0.042154423892498016
      ],
      "type": "VEC3"
    },
    {
      "bufferView": 2,
      "byteOffset": 1184616,
      "componentType": 5126,
      "count": 3612,
      "max": [
        0.9715296030044556,
        0.9045621156692505,
        0.20546860992908478
      ],
      "min": [
        -0.9696800708770752,
        -0.99686598777771,
        -0.9989816546440125
      ],
      "type": "VEC3"
    },
    {
      "bufferView": 1,
      "byteOffset": 380424,
      "componentType": 5126,
      "count": 3612,
      "max": [
        256.3089294433594,
        297.71990966796875
      ],
      "min": [
        -256.3175048828125,
        -406.47247314453125
      ],
      "type": "VEC2"
    },
    {
      "bufferView": 0,
      "byteOffset": 1116648,
      "componentType": 5125,
      "count": 18144,
      "type": "SCALAR"
    },
    {
      "bufferView": 2,
      "byteOffset": 1227960,
      "componentType": 5126,
      "count": 24268,
      "max": [
        0.2079797089099884,
        1.629104495048523,
        0.008685611188411713
      ],
      "min": [
        -0.20775645971298218,
        0.9362870454788208,
        -0.14934851229190826
      ],
      "type": "VEC3"
    },
    {
      "bufferView": 2,
      "byteOffset": 1519176,
      "componentType": 5126,
      "count": 24268,
      "max": [
        0.995309591293335,
        0.9839087128639221,
        0.20180633664131165
      ],
      "min": [
        -0.9950453639030457,
        -0.8574339151382446,
        -0.9999995827674866
      ],
      "type": "VEC3"
    },
    {
      "bufferView": 1,
      "byteOffset": 409320,
      "componentType": 5126,
      "count": 24268,
      "max": [
        255.77427673339844,
        343.9010009765625
      ],
      "min": [
        -255.76625061035156,
        -385.1397399902344
      ],
      "type": "VEC2"
    },
    {
      "bufferView": 0,
      "byteOffset": 1189224,
      "componentType": 5125,
      "count": 144126,
      "type": "SCALAR"
    },
    {
      "bufferView": 2,
      "byteOffset": 1810392,
      "componentType": 5126,
      "count": 24268,
      "max": [
        0.2076701521873474,
        1.6286565065383911,
        0.0087042897939682
      ],
      "min": [
        -0.20746342837810516,
        0.9363815188407898,
        -0.14884860813617706
      ],
      "type": "VEC3"
    },
    {
      "bufferView": 2,
      "byteOffset": 2101608,
      "componentType": 5126,
      "count": 24268,
      "max": [
        0.9950453042984009,
        0.8570178151130676,
        0.9999995827674866
      ],
      "min": [
        -0.9953094720840454,
        -0.9839228391647339,
        -0.20169447362422943
      ],
      "type": "VEC3"
    },
    {
      "bufferView": 1,
      "byteOffset": 603464,
      "componentType": 5126,
      "count": 24268,
      "max": [
        255.77427673339844,
        343.9010009765625
      ],
      "min": [
        -255.76625061035156,
        -385.1397399902344
      ],
      "type": "VEC2"
    },
    {
      "bufferView": 0,
      "byteOffset": 1765728,
      "componentType": 5125,
      "count": 144126,
      "type": "SCALAR"
    },
    {
      "bufferView": 2,
      "byteOffset": 2392824,
      "componentType": 5126,
      "count": 3528,
      "max": [
        0.2079797089099884,
        1.629104495048523,
        0.0087042897939682
      ],
      "min": [
        -0.20775645971298218,
        0.9362870454788208,
        -0.12620921432971954
      ],
      "type": "VEC3"
    },
    {
      "bufferView": 2,
      "byteOffset": 2435160,
      "componentType": 5126,
      "count": 3528,
      "max": [
        0.9992398023605347,
        0.9824137091636658,
        0.9977813959121704
      ],
      "min": [
        -0.9594541788101196,
        -0.99446702003479,
        -0.06813939660787582
      ],
      "type": "VEC3"
    },
    {
      "bufferView": 1,
      "byteOffset": 797608,
      "componentType": 5126,
      "count": 3528,
      "max": [
        256.2732849121094,
        344.4010009765625
      ],
      "min": [
        -256.2651672363281,
        -385.6163024902344
      ],
      "type": "VEC2"
    },
    {
      "bufferView": 0,
      "byteOffset": 2342232,
      "componentType": 5125,
      "count": 17712,
      "type": "SCALAR"
    },
    {
      "bufferView": 2,
      "byteOffset": 2477496,
      "componentType": 5126,
      "count": 9679,
      "max": [
        0.3258504271507263,
        1.5755043029785156,
        0.043447691947221756
      ],
      "min": [
        0.1786404252052307,
        1.3577498197555542,
        -0.11446479707956314
      ],
      "type": "VEC3"
    },
    {
      "bufferView": 2,
      "byteOffset": 2593644,
      "componentType": 5126,
      "count": 9679,
      "max": [
        0.9028318524360657,
        0.9935174584388733,
        0.99996018409729
      ],
      "min": [
        -0.9994767308235168,
        -0.993533730506897,
        -0.9999439716339111
      ],
      "type": "VEC3"
    },
    {
      "bufferView": 1,
      "byteOffset": 825832,
      "componentType": 5126,
      "count": 9679,
      "max": [
        198.5648193359375,
        102.029052734375
      ],
      "min": [
        -198.56475830078125,
        -101.9967041015625
      ],
      "type": "VEC2"
    },
    {
      "bufferView": 0,
      "byteOffset": 2413080,
      "componentType": 5125,
      "count": 55404,
      "type": "SCALAR"
    },
    {
      "bufferView": 2,
      "byteOffset": 2709792,
      "componentType": 5126,
      "count": 9635,
      "max": [
        -0.1801571100950241,
        1.5748897790908813,
        0.0432635173201561
      ],
      "min": [
        -0.3271026909351349,
        1.3555173873901367,
        -0.11441069096326828
      ],
      "type": "VEC3"
    },
    {
      "bufferView": 2,
      "byteOffset": 2825412,
      "componentType": 5126,
      "count": 9635,
      "max": [
        0.9999589323997498,
        0.9942716956138611,
        0.9999977350234985
      ],
      "min": [
        -0.8968924880027771,
        -0.9944136738777161,
        -0.9999973773956299
      ],
      "type": "VEC3"
    },
    {
      "bufferView": 1,
      "byteOffset": 903264,
      "componentType": 5126,
      "count": 9635,
      "max": [
        198.56475830078125,
        102.029052734375
      ],
      "min": [
        -198.5648193359375,
        -101.9967041015625
      ],
      "type": "VEC2"
    },
    {
      "bufferView": 0,
      "byteOffset": 2634696,
      "componentType": 5125,
      "count": 55140,
      "type": "SCALAR"
    }
  ],
  "asset": {
    "extras": {
      "author": "funlab117 (https://sketchfab.com/funlab117)",
      "license": "CC-BY-4.0 (http://creativecommons.org/licenses/by/4.0/)",
      "source": "https://sketchfab.com/3d-models/t-shirt-c1a3e5eb9b5445f4b7d4be82f1127eba",
      "title": "T Shirt"
    },
    "generator": "Sketchfab-14.32.1",
    "version": "2.0"
  },
  "bufferViews": [
    {
      "buffer": 0,
      "byteLength": 2855256,
      "name": "floatBufferViews",
      "target": 34963
    },
    {
      "buffer": 0,
      "byteLength": 980344,
      "byteOffset": 2855256,
      "byteStride": 8,
      "name": "floatBufferViews",
      "target": 34962
    },
    {
      "buffer": 0,
      "byteLength": 2941032,
      "byteOffset": 3835600,
      "byteStride": 12,
      "name": "floatBufferViews",
      "target": 34962
    }
  ],
  "buffers": [
    {
      "byteLength": 6776632,
      "uri": "scene.bin"
    }
  ],
  "materials": [
    {
      "name": "Body_FRONT_2664",
      "pbrMetallicRoughness": {
        "metallicFactor": 0.0,
        "roughnessFactor": 0.5
      }
    },
    {
      "name": "Sleeves_FRONT_2669",
      "pbrMetallicRoughness": {
        "metallicFactor": 0.0,
        "roughnessFactor": 0.5
      }
    }
  ],
  "meshes": [
    {
      "name": "Object_0",
      "primitives": [
        {
          "attributes": {
            "NORMAL": 1,
            "POSITION": 0,
            "TEXCOORD_0": 2
          },
          "indices": 3,
          "material": 0,
          "mode": 4
        }
      ]
    },
    {
      "name": "Object_1",
      "primitives": [
        {
          "attributes": {
            "NORMAL": 5,
            "POSITION": 4,
            "TEXCOORD_0": 6
          },
          "indices": 7,
          "material": 0,
          "mode": 4
        }
      ]
    },
    {
      "name": "Object_2",
      "primitives": [
        {
          "attributes": {
            "NORMAL": 9,
            "POSITION": 8,
            "TEXCOORD_0": 10
          },
          "indices": 11,
          "material": 0,
          "mode": 4
        }
      ]
    },
    {
      "name": "Object_3",
      "primitives": [
        {
          "attributes": {
            "NORMAL": 13,
            "POSITION": 12,
            "TEXCOORD_0": 14
          },
          "indices": 15,
          "material": 0,
          "mode": 4
        }
      ]
    },
    {
      "name": "Object_4",
      "primitives": [
        {
          "attributes": {
            "NORMAL": 17,
            "POSITION": 16,
            "TEXCOORD_0": 18
          },
          "indices": 19,
          "material": 0,
          "mode": 4
        }
      ]
    },
    {
      "name": "Object_5",
      "primitives": [
        {
          "attributes": {
            "NORMAL": 21,
            "POSITION": 20,
            "TEXCOORD_0": 22
          },
          "indices": 23,
          "material": 0,
          "mode": 4
        }
      ]
    },
    {
      "name": "Object_6",
      "primitives": [
        {
          "attributes": {
            "NORMAL": 25,
            "POSITION": 24,
            "TEXCOORD_0": 26
          },
          "indices": 27,
          "material": 0,
          "mode": 4
        }
      ]
    },
    {
      "name": "Object_7",
      "primitives": [
        {
          "attributes": {
            "NORMAL": 29,
            "POSITION": 28,
            "TEXCOORD_0": 30
          },
          "indices": 31,
          "material": 0,
          "mode": 4
        }
      ]
    },
    {
      "name": "Object_8",
      "primitives": [
        {
          "attributes": {
            "NORMAL": 33,
            "POSITION": 32,
            "TEXCOORD_0": 34
          },
          "indices": 35,
          "material": 1,
          "mode": 4
        }
      ]
    },
    {
      "name": "Object_9",
      "primitives": [
        {
          "attributes": {
            "NORMAL": 37,
            "POSITION": 36,
            "TEXCOORD_0": 38
          },
          "indices": 39,
          "material": 1,
          "mode": 4
        }
      ]
    }
  ],
  "nodes": [
    {
      "children": [
        1
      ],
      "matrix": [
        0.8758807182312012,
        0.04089056700468053,
        0.48079201579093933,
        0.0,
        0.48251911997795105,
        -0.08016644418239574,
        -0.8722090721130371,
        0.0,
        0.00287826219573617,
        0.9959424138069153,
        -0.08994672447442986,
        0.0,
        0.0,
        0.0,
        0.0,
        1.0
      ],
      "name": "Sketchfab_model"
    },
    {
      "children": [
        2
      ],
      "name": "root"
    },
    {
      "children": [
        3
      ],
      "matrix": [
        1.0,
        0.0,
        0.0,
        0.0,
        0.0,
        2.220446049250313e-16,
        1.0,
        0.0,
        0.0,
        -1.0,
        2.220446049250313e-16,
        0.0,
        0.0,
        0.0,
        0.0,
        1.0
      ],
      "name": "GLTF_SceneRootNode"
    },
    {
      "children": [
        4
      ],
      "name": "T_shirt_gltf.zip_Scene_Node_0"
    },
    {
      "children": [
        5,
        7,
        9,
        13,
        17,
        19
      ],
      "name": "Cloth_1"
    },
    {
      "children": [
        6
      ],
      "name": "Ribbing_Node_2"
    },
    {
      "mesh": 0,
      "name": "Object_6"
    },
    {
      "children": [
        8
      ],
      "name": "Ribbing_Node_3"
    },
    {
      "mesh": 1,
      "name": "Object_8"
    },
    {
      "children": [
        10,
        11,
        12
      ],
      "name": "Body_Front_Node_4"
    },
    {
      "mesh": 2,
      "name": "Object_10"
    },
    {
      "mesh": 3,
      "name": "Object_11"
    },
    {
      "mesh": 4,
      "name": "Object_12"
    },
    {
      "children": [
        14,
        15,
        16
      ],
      "name": "Body_Back_Node_5"
    },
    {
      "mesh": 5,
      "name": "Object_14"
    },
    {
      "mesh": 6,
      "name": "Object_15"
    },
    {
      "mesh": 7,
      "name": "Object_16"
    },
    {
      "children": [
        18
      ],
      "name": "Sleeves_Node_6"
    },
    {
      "mesh": 8,
      "name": "Object_18"
    },
    {
      "children": [
        20
      ],
      "name": "Sleeves_Node_7"
    },
    {
      "mesh": 9,
      "name": "Object_20"
    }
  ],
  "scene": 0,
  "scenes": [
    {
      "name": "Sketchfab_Scene",
      "nodes": [
        0
      ]
    }
  ]
}
